<svg xmlns="http://www.w3.org/2000/svg" fill="none" viewBox="0 0 16 16">
    <path fill="#FF6B7A" d="M16 8.38c0-.302-.101-.593-.281-.807a.89.89 0 0 0-.679-.335h-2.88a.297.297 0 0 1-.226-.111.42.42 0 0 1-.094-.27V5.714a4.865 4.865 0 0 0-.096-.926.451.451 0 0 1 .01-.21.387.387 0 0 1 .104-.173l2.5-2.368c.098-.093.18-.209.242-.34a1.354 1.354 0 0 0 .083-.87 1.233 1.233 0 0 0-.172-.396 1.026 1.026 0 0 0-.286-.288.856.856 0 0 0-.356-.136.813.813 0 0 0-.374.037.917.917 0 0 0-.333.205L10.97 2.327a.288.288 0 0 1-.21.083.294.294 0 0 1-.204-.098C9.854 1.56 8.943 1.144 8 1.144s-1.854.416-2.556 1.168a.293.293 0 0 1-.204.098.286.286 0 0 1-.209-.083L2.838.25a.916.916 0 0 0-.333-.204.813.813 0 0 0-.374-.037.856.856 0 0 0-.356.136c-.11.073-.208.17-.286.288a1.234 1.234 0 0 0-.172.396 1.353 1.353 0 0 0 .083.87c.061.13.144.247.242.34l2.5 2.368a.384.384 0 0 1 .104.172c.02.067.023.14.01.21a4.871 4.871 0 0 0-.096.927v1.141a.42.42 0 0 1-.094.27.297.297 0 0 1-.226.111H.96a.89.89 0 0 0-.679.335C.101 7.787 0 8.078 0 8.38c0 .303.101.594.281.808a.89.89 0 0 0 .679.335h2.88c.085 0 .166.04.226.111a.42.42 0 0 1 .094.27v.38c.003.313.035.624.096.927.013.07.01.143-.01.21a.389.389 0 0 1-.103.173l-2.5 2.367c-.1.094-.182.21-.243.34-.06.132-.1.277-.114.426-.029.3.044.603.203.84.158.238.39.39.642.425a.856.856 0 0 0 .707-.242l2.194-2.076a.287.287 0 0 1 .208-.083.294.294 0 0 1 .204.098c.702.751 1.612 1.167 2.556 1.167s1.854-.416 2.556-1.167a.293.293 0 0 1 .204-.098.287.287 0 0 1 .208.083l2.194 2.076c.2.19.454.276.707.242a.934.934 0 0 0 .642-.424c.159-.238.232-.54.203-.841a1.213 1.213 0 0 0-.356-.765l-2.501-2.367a.387.387 0 0 1-.103-.172.45.45 0 0 1-.01-.212c.061-.303.094-.613.096-.925v-.382a.42.42 0 0 1 .094-.27.296.296 0 0 1 .226-.111h2.88a.89.89 0 0 0 .679-.335c.18-.214.281-.505.281-.808z"/>
</svg>
