<svg xmlns="http://www.w3.org/2000/svg" fill="none" viewBox="0 0 16 16">
    <path fill="#A4A4A4" d="M15 6.333h-1.241a5.972 5.972 0 0 0-.509-1.226l.878-.878a1 1 0 0 0 0-1.414l-.943-.942a1 1 0 0 0-1.414 0l-.879.878a5.94 5.94 0 0 0-1.225-.509V1a1 1 0 0 0-1-1H7.333a1 1 0 0 0-1 1v1.242a5.98 5.98 0 0 0-1.226.509l-.878-.878a1 1 0 0 0-1.414 0l-.944.942a1 1 0 0 0 0 1.415l.879.878a5.92 5.92 0 0 0-.509 1.225H1a1 1 0 0 0-1 1v1.334a1 1 0 0 0 1 1h1.241c.123.426.294.837.509 1.226l-.88.879a1 1 0 0 0 0 1.414l.943.943a1.03 1.03 0 0 0 1.415 0l.879-.878c.388.214.8.385 1.226.509V15a1 1 0 0 0 1 1h1.334a1 1 0 0 0 1-1v-1.24a5.972 5.972 0 0 0 1.226-.509l.878.878a1 1 0 0 0 1.414 0l.943-.942a1 1 0 0 0 0-1.414l-.878-.878c.215-.389.386-.8.509-1.227H15a1 1 0 0 0 1-1.001V7.333a1 1 0 0 0-1-1zm-7 5a3.334 3.334 0 1 1 0-6.667 3.334 3.334 0 0 1 0 6.667z"/>
</svg>
